<mxfile host="app.diagrams.net" agent="Mozilla/5.0 (Windows NT 10.0; Win64; x64) AppleWebKit/537.36 (KHTML, like Gecko) Chrome/134.0.0.0 Safari/537.36" version="26.1.3">
  <diagram name="Página-1" id="lVIbiNyhXWDed5cu69hf">
    <mxGraphModel dx="2418" dy="857" grid="1" gridSize="10" guides="1" tooltips="1" connect="1" arrows="1" fold="1" page="1" pageScale="1" pageWidth="827" pageHeight="1169" math="0" shadow="0">
      <root>
        <mxCell id="0" />
        <mxCell id="1" parent="0" />
        <mxCell id="t6qunFwOh2_4cruAnJ3j-1" value="&lt;div&gt;&lt;span style=&quot;background-color: transparent; color: light-dark(rgb(0, 0, 0), rgb(255, 255, 255));&quot;&gt;Proceso de extracción, transformación y carga de datos hacia el Data Warehouse.&lt;/span&gt;&lt;/div&gt;&lt;div&gt;&lt;span style=&quot;background-color: transparent; color: light-dark(rgb(0, 0, 0), rgb(255, 255, 255));&quot;&gt;&lt;br&gt;&lt;/span&gt;&lt;/div&gt;&lt;div&gt;&lt;span style=&quot;background-color: transparent; color: light-dark(rgb(0, 0, 0), rgb(255, 255, 255));&quot;&gt;Limpia y estructura los datos para su análisis.&lt;/span&gt;&lt;/div&gt;" style="rounded=0;whiteSpace=wrap;html=1;" vertex="1" parent="1">
          <mxGeometry x="90" y="570" width="190" height="140" as="geometry" />
        </mxCell>
        <mxCell id="t6qunFwOh2_4cruAnJ3j-3" value="MICROSFOT&lt;div&gt;CLOUD&lt;/div&gt;&lt;div&gt;MAPS&lt;/div&gt;" style="rounded=0;whiteSpace=wrap;html=1;" vertex="1" parent="1">
          <mxGeometry x="-200" y="830" width="190" height="140" as="geometry" />
        </mxCell>
        <mxCell id="t6qunFwOh2_4cruAnJ3j-4" value="CLIENTES&lt;div&gt;COMPRAS&lt;/div&gt;&lt;div&gt;TRANSACCIONES&lt;/div&gt;" style="rounded=0;whiteSpace=wrap;html=1;" vertex="1" parent="1">
          <mxGeometry x="-200" y="340" width="190" height="140" as="geometry" />
        </mxCell>
        <mxCell id="t6qunFwOh2_4cruAnJ3j-5" value="&lt;div&gt;DATA&lt;/div&gt;&lt;div&gt;WAREHOUSE&lt;/div&gt;" style="rounded=0;whiteSpace=wrap;html=1;" vertex="1" parent="1">
          <mxGeometry x="370" y="570" width="190" height="140" as="geometry" />
        </mxCell>
        <mxCell id="t6qunFwOh2_4cruAnJ3j-6" value="" style="endArrow=classic;html=1;rounded=0;entryX=-0.021;entryY=0.107;entryDx=0;entryDy=0;entryPerimeter=0;exitX=1;exitY=1;exitDx=0;exitDy=0;" edge="1" parent="1" target="t6qunFwOh2_4cruAnJ3j-19" source="t6qunFwOh2_4cruAnJ3j-5">
          <mxGeometry width="50" height="50" relative="1" as="geometry">
            <mxPoint x="553.99" y="700" as="sourcePoint" />
            <mxPoint x="640.0000000000002" y="778.94" as="targetPoint" />
          </mxGeometry>
        </mxCell>
        <mxCell id="t6qunFwOh2_4cruAnJ3j-7" value="" style="endArrow=classic;html=1;rounded=0;entryX=1.021;entryY=0.571;entryDx=0;entryDy=0;entryPerimeter=0;" edge="1" parent="1" target="t6qunFwOh2_4cruAnJ3j-1">
          <mxGeometry width="50" height="50" relative="1" as="geometry">
            <mxPoint x="370" y="650" as="sourcePoint" />
            <mxPoint x="290" y="650" as="targetPoint" />
          </mxGeometry>
        </mxCell>
        <mxCell id="t6qunFwOh2_4cruAnJ3j-8" value="" style="endArrow=classic;html=1;rounded=0;" edge="1" parent="1">
          <mxGeometry width="50" height="50" relative="1" as="geometry">
            <mxPoint x="90" y="540" as="sourcePoint" />
            <mxPoint x="-10" y="460" as="targetPoint" />
          </mxGeometry>
        </mxCell>
        <mxCell id="t6qunFwOh2_4cruAnJ3j-11" value="SISTEMAS INTERNOS" style="rounded=0;whiteSpace=wrap;html=1;" vertex="1" parent="1">
          <mxGeometry x="-200" y="310" width="190" height="30" as="geometry" />
        </mxCell>
        <mxCell id="t6qunFwOh2_4cruAnJ3j-12" value="(Extract, Transform, Load&lt;div&gt;(ETL)&lt;/div&gt;" style="rounded=0;whiteSpace=wrap;html=1;" vertex="1" parent="1">
          <mxGeometry x="90" y="540" width="190" height="30" as="geometry" />
        </mxCell>
        <mxCell id="t6qunFwOh2_4cruAnJ3j-13" value="OTROS" style="rounded=0;whiteSpace=wrap;html=1;" vertex="1" parent="1">
          <mxGeometry x="-200" y="800" width="190" height="30" as="geometry" />
        </mxCell>
        <mxCell id="t6qunFwOh2_4cruAnJ3j-14" value="DATA SCIENCE" style="rounded=0;whiteSpace=wrap;html=1;" vertex="1" parent="1">
          <mxGeometry x="660" y="740" width="190" height="30" as="geometry" />
        </mxCell>
        <mxCell id="t6qunFwOh2_4cruAnJ3j-15" value="" style="endArrow=classic;html=1;rounded=0;entryX=1;entryY=0;entryDx=0;entryDy=0;exitX=0;exitY=1;exitDx=0;exitDy=0;" edge="1" parent="1" source="t6qunFwOh2_4cruAnJ3j-1" target="t6qunFwOh2_4cruAnJ3j-13">
          <mxGeometry width="50" height="50" relative="1" as="geometry">
            <mxPoint x="90" y="720" as="sourcePoint" />
            <mxPoint x="-10" y="640" as="targetPoint" />
          </mxGeometry>
        </mxCell>
        <mxCell id="t6qunFwOh2_4cruAnJ3j-16" value="FACEBOOK&lt;div&gt;GOOGLE&lt;/div&gt;&lt;div&gt;SKYPE&lt;/div&gt;" style="rounded=0;whiteSpace=wrap;html=1;" vertex="1" parent="1">
          <mxGeometry x="-200" y="570" width="190" height="140" as="geometry" />
        </mxCell>
        <mxCell id="t6qunFwOh2_4cruAnJ3j-17" value="APPS" style="rounded=0;whiteSpace=wrap;html=1;" vertex="1" parent="1">
          <mxGeometry x="-200" y="540" width="190" height="30" as="geometry" />
        </mxCell>
        <mxCell id="t6qunFwOh2_4cruAnJ3j-18" value="" style="endArrow=classic;html=1;rounded=0;entryX=1;entryY=0.5;entryDx=0;entryDy=0;" edge="1" parent="1" target="t6qunFwOh2_4cruAnJ3j-16">
          <mxGeometry width="50" height="50" relative="1" as="geometry">
            <mxPoint x="96" y="639.5" as="sourcePoint" />
            <mxPoint x="10" y="639.5" as="targetPoint" />
          </mxGeometry>
        </mxCell>
        <mxCell id="t6qunFwOh2_4cruAnJ3j-19" value="Modelos estadísticos y análisis predictivos para descubrir patrones." style="rounded=0;whiteSpace=wrap;html=1;" vertex="1" parent="1">
          <mxGeometry x="660" y="770" width="190" height="140" as="geometry" />
        </mxCell>
        <mxCell id="t6qunFwOh2_4cruAnJ3j-20" value="BUSINESS INTELLIGENCE" style="rounded=0;whiteSpace=wrap;html=1;" vertex="1" parent="1">
          <mxGeometry x="660" y="370" width="190" height="30" as="geometry" />
        </mxCell>
        <mxCell id="t6qunFwOh2_4cruAnJ3j-21" value="Generación de informes y análisis visuales para apoyar la toma de decisiones." style="rounded=0;whiteSpace=wrap;html=1;" vertex="1" parent="1">
          <mxGeometry x="660" y="400" width="190" height="140" as="geometry" />
        </mxCell>
        <mxCell id="t6qunFwOh2_4cruAnJ3j-23" value="" style="endArrow=classic;html=1;rounded=0;exitX=1;exitY=1;exitDx=0;exitDy=0;entryX=0.005;entryY=0.829;entryDx=0;entryDy=0;entryPerimeter=0;" edge="1" parent="1" target="t6qunFwOh2_4cruAnJ3j-21">
          <mxGeometry width="50" height="50" relative="1" as="geometry">
            <mxPoint x="560" y="572" as="sourcePoint" />
            <mxPoint x="650" y="520" as="targetPoint" />
          </mxGeometry>
        </mxCell>
        <mxCell id="t6qunFwOh2_4cruAnJ3j-24" value="" style="endArrow=classic;html=1;rounded=0;exitX=1;exitY=1;exitDx=0;exitDy=0;entryX=0.005;entryY=0.829;entryDx=0;entryDy=0;entryPerimeter=0;" edge="1" parent="1">
          <mxGeometry width="50" height="50" relative="1" as="geometry">
            <mxPoint x="850" y="796" as="sourcePoint" />
            <mxPoint x="951" y="740" as="targetPoint" />
          </mxGeometry>
        </mxCell>
        <mxCell id="t6qunFwOh2_4cruAnJ3j-25" value="" style="endArrow=classic;html=1;rounded=0;exitX=1;exitY=1;exitDx=0;exitDy=0;" edge="1" parent="1">
          <mxGeometry width="50" height="50" relative="1" as="geometry">
            <mxPoint x="850" y="530" as="sourcePoint" />
            <mxPoint x="950" y="580" as="targetPoint" />
          </mxGeometry>
        </mxCell>
        <mxCell id="t6qunFwOh2_4cruAnJ3j-26" value="Resultado final del análisis de datos para influir en decisiones estratégicas." style="rounded=0;whiteSpace=wrap;html=1;" vertex="1" parent="1">
          <mxGeometry x="950" y="610" width="190" height="140" as="geometry" />
        </mxCell>
        <mxCell id="t6qunFwOh2_4cruAnJ3j-27" value="Toma de decisiones" style="rounded=0;whiteSpace=wrap;html=1;" vertex="1" parent="1">
          <mxGeometry x="950" y="580" width="190" height="30" as="geometry" />
        </mxCell>
      </root>
    </mxGraphModel>
  </diagram>
</mxfile>
